REM DIRINDEX 1\2,1\3,1\4,1\5
REM DIRNAME "folder01","folder02","folder03","folder04","folder05"
TITLE ""
FILE "1Q_t_0349-0358.mp3" MP3
  TRACK 01 AUDIO
    TITLE "0:"
    INDEX 01 00:00:00
  TRACK 02 AUDIO
    TITLE "3:cjc172_1970"
    INDEX 01 00:00:10
  TRACK 03 AUDIO
    TITLE "0:"
    INDEX 01 00:01:08
  TRACK 04 AUDIO
    TITLE "4:cjc172_1971"
    INDEX 01 00:01:23
  TRACK 05 AUDIO
    TITLE "0:"
    INDEX 01 00:02:31
  TRACK 06 AUDIO
    TITLE "5:cjc172_1972"
    INDEX 01 00:02:46
  TRACK 07 AUDIO
    TITLE "0:"
    INDEX 01 00:07:34
  TRACK 08 AUDIO
    TITLE "3:cjc172_1973"
    INDEX 01 00:08:10
  TRACK 09 AUDIO
    TITLE "0:"
    INDEX 01 00:09:11
  TRACK 10 AUDIO
    TITLE "4:cjc172_1974"
    INDEX 01 00:09:27
  TRACK 11 AUDIO
    TITLE "0:"
    INDEX 01 00:12:04
  TRACK 12 AUDIO
    TITLE "5:cjc172_1975"
    INDEX 01 00:12:17
  TRACK 13 AUDIO
    TITLE "0:"
    INDEX 01 00:19:00
  TRACK 14 AUDIO
    TITLE "3:cjc172_1976"
    INDEX 01 00:19:51
  TRACK 15 AUDIO
    TITLE "0:"
    INDEX 01 00:20:74
  TRACK 16 AUDIO
    TITLE "4:cjc172_1977"
    INDEX 01 00:21:14
  TRACK 17 AUDIO
    TITLE "0:"
    INDEX 01 00:24:25
  TRACK 18 AUDIO
    TITLE "5:cjc172_1978"
    INDEX 01 00:24:42
  TRACK 19 AUDIO
    TITLE "0:"
    INDEX 01 00:30:09
  TRACK 20 AUDIO
    TITLE "3:cjc172_1979"
    INDEX 01 00:30:62
  TRACK 21 AUDIO
    TITLE "0:"
    INDEX 01 00:32:14
  TRACK 22 AUDIO
    TITLE "4:cjc172_1980"
    INDEX 01 00:32:30
  TRACK 23 AUDIO
    TITLE "0:"
    INDEX 01 00:34:44
  TRACK 24 AUDIO
    TITLE "5:cjc172_1981"
    INDEX 01 00:34:58
  TRACK 25 AUDIO
    TITLE "0:"
    INDEX 01 00:41:31
  TRACK 26 AUDIO
    TITLE "3:cjc172_1982"
    INDEX 01 00:42:09
  TRACK 27 AUDIO
    TITLE "0:"
    INDEX 01 00:43:24
  TRACK 28 AUDIO
    TITLE "4:cjc172_1983"
    INDEX 01 00:43:40
  TRACK 29 AUDIO
    TITLE "0:"
    INDEX 01 00:45:62
  TRACK 30 AUDIO
    TITLE "5:cjc172_1984"
    INDEX 01 00:46:03
  TRACK 31 AUDIO
    TITLE "0:"
    INDEX 01 00:51:66
  TRACK 32 AUDIO
    TITLE "3:cjc172_1985"
    INDEX 01 00:52:44
  TRACK 33 AUDIO
    TITLE "0:"
    INDEX 01 00:53:67
  TRACK 34 AUDIO
    TITLE "4:cjc172_1986"
    INDEX 01 00:54:08
  TRACK 35 AUDIO
    TITLE "0:"
    INDEX 01 00:57:24
  TRACK 36 AUDIO
    TITLE "5:cjc172_1987"
    INDEX 01 00:57:38
  TRACK 37 AUDIO
    TITLE "0:"
    INDEX 01 01:04:12
  TRACK 38 AUDIO
    TITLE "3:cjc172_1988"
    INDEX 01 01:04:65
  TRACK 39 AUDIO
    TITLE "0:"
    INDEX 01 01:05:72
  TRACK 40 AUDIO
    TITLE "4:cjc172_1989"
    INDEX 01 01:06:13
  TRACK 41 AUDIO
    TITLE "0:"
    INDEX 01 01:08:63
  TRACK 42 AUDIO
    TITLE "5:cjc172_1990"
    INDEX 01 01:09:02
  TRACK 43 AUDIO
    TITLE "0:"
    INDEX 01 01:15:36
  TRACK 44 AUDIO
    TITLE "3:cjc172_1991"
    INDEX 01 01:16:17
  TRACK 45 AUDIO
    TITLE "0:"
    INDEX 01 01:17:56
  TRACK 46 AUDIO
    TITLE "4:cjc172_1992"
    INDEX 01 01:17:72
  TRACK 47 AUDIO
    TITLE "0:"
    INDEX 01 01:19:27
  TRACK 48 AUDIO
    TITLE "5:cjc172_1993"
    INDEX 01 01:19:41
  TRACK 49 AUDIO
    TITLE "0:"
    INDEX 01 01:26:26
  TRACK 50 AUDIO
    TITLE "3:cjc172_1994"
    INDEX 01 01:27:07
  TRACK 51 AUDIO
    TITLE "0:"
    INDEX 01 01:28:40
  TRACK 52 AUDIO
    TITLE "4:cjc172_1995"
    INDEX 01 01:28:58
  TRACK 53 AUDIO
    TITLE "0:"
    INDEX 01 01:30:04
  TRACK 54 AUDIO
    TITLE "5:cjc172_1996"
    INDEX 01 01:30:19
  TRACK 55 AUDIO
    TITLE "0:"
    INDEX 01 01:35:19
  TRACK 56 AUDIO
    TITLE "3:cjc172_1997"
    INDEX 01 01:36:01
  TRACK 57 AUDIO
    TITLE "0:"
    INDEX 01 01:37:08
  TRACK 58 AUDIO
    TITLE "4:cjc172_1998"
    INDEX 01 01:37:25
  TRACK 59 AUDIO
    TITLE "0:"
    INDEX 01 01:39:20
  TRACK 60 AUDIO
    TITLE "5:cjc172_1999"
    INDEX 01 01:39:36
  TRACK 61 AUDIO
    TITLE "0:"
    INDEX 01 01:45:15
